<?xml version="1.0" encoding="UTF-8" standalone="no"?>
<svg
   xmlns:dc="http://purl.org/dc/elements/1.1/"
   xmlns:cc="http://creativecommons.org/ns#"
   xmlns:rdf="http://www.w3.org/1999/02/22-rdf-syntax-ns#"
   xmlns:svg="http://www.w3.org/2000/svg"
   xmlns="http://www.w3.org/2000/svg"
   xmlns:sodipodi="http://sodipodi.sourceforge.net/DTD/sodipodi-0.dtd"
   xmlns:inkscape="http://www.inkscape.org/namespaces/inkscape"
   width="1920"
   height="1080"
   viewBox="0 0 508 285.75"
   version="1.1"
   id="svg8"
   inkscape:version="1.0.1 (3bc2e813f5, 2020-09-07)"
   sodipodi:docname="Звезды и многоугольники.svg">
  <defs
     id="defs2">
    <inkscape:path-effect
       effect="fillet_chamfer"
       id="path-effect1112"
       is_visible="true"
       lpeversion="1"
       satellites_param="F,0,0,1,0,30.427083,0,1 @ F,0,0,1,0,0,0,1 @ F,0,0,1,0,0,0,1 @ F,0,0,1,0,30.427083,0,1"
       unit="px"
       method="auto"
       mode="F"
       radius="115"
       chamfer_steps="1"
       flexible="false"
       use_knot_distance="true"
       apply_no_radius="true"
       apply_with_radius="true"
       only_selected="false"
       hide_knots="false" />
    <inkscape:path-effect
       effect="fillet_chamfer"
       id="path-effect1093"
       is_visible="true"
       lpeversion="1"
       satellites_param="F,0,0,1,0,0,0,1 @ F,0,0,1,0,23.292539,0,1 @ F,0,0,1,0,0,0,1 @ F,0,0,1,0,0,0,1"
       unit="px"
       method="auto"
       mode="F"
       radius="0"
       chamfer_steps="1"
       flexible="false"
       use_knot_distance="true"
       apply_no_radius="true"
       apply_with_radius="true"
       only_selected="false"
       hide_knots="false" />
    <inkscape:path-effect
       effect="bend_path"
       id="path-effect1087"
       is_visible="true"
       lpeversion="1"
       bendpath="M 274.0849,59.681284 H 394.75708"
       prop_scale="1.19"
       scale_y_rel="false"
       vertical="false"
       hide_knot="false" />
  </defs>
  <sodipodi:namedview
     id="base"
     pagecolor="#ffffff"
     bordercolor="#666666"
     borderopacity="1.0"
     inkscape:pageopacity="0.0"
     inkscape:pageshadow="2"
     inkscape:zoom="0.3875718"
     inkscape:cx="1338.5788"
     inkscape:cy="504.35357"
     inkscape:document-units="mm"
     inkscape:current-layer="g91"
     inkscape:document-rotation="0"
     showgrid="false"
     units="px"
     showguides="false"
     inkscape:snap-global="true"
     inkscape:window-width="1350"
     inkscape:window-height="728"
     inkscape:window-x="0"
     inkscape:window-y="0"
     inkscape:window-maximized="0">
    <inkscape:grid
       type="xygrid"
       id="grid59" />
  </sodipodi:namedview>
  <metadata
     id="metadata5">
    <rdf:RDF>
      <cc:Work
         rdf:about="">
        <dc:format>image/svg+xml</dc:format>
        <dc:type
           rdf:resource="http://purl.org/dc/dcmitype/StillImage" />
        <dc:title></dc:title>
      </cc:Work>
    </rdf:RDF>
  </metadata>
  <g
     inkscape:groupmode="layer"
     id="g91"
     inkscape:label="Копия Layer 1">
    <path
       sodipodi:type="star"
       style="fill:#008080;fill-rule:evenodd;stroke:none;stroke-width:2;stroke-miterlimit:4;stroke-dasharray:none;stroke-opacity:1"
       id="path1194"
       sodipodi:sides="26"
       sodipodi:cx="118.24004"
       sodipodi:cy="115.99498"
       sodipodi:r1="103.29734"
       sodipodi:r2="56.813538"
       sodipodi:arg1="0.83151928"
       sodipodi:arg2="0.95234977"
       inkscape:flatsided="false"
       inkscape:rounded="0"
       inkscape:randomized="0"
       d="m 187.83703,192.32715 -36.65819,-30.04163 16.36834,44.47921 -28.40354,-37.94156 5.24814,47.10392 -18.49817,-43.63645 -6.17707,46.99113 -7.51776,-46.79536 L 94.955488,216.63379 98.855044,169.3991 71.547651,208.13705 86.637895,163.20814 50.853407,194.28535 76.257348,154.27332 34.075429,175.88369 68.316682,143.1139 22.188792,154.00153 63.277381,130.37844 15.884305,129.91056 61.43231,116.80705 15.528361,105.01086 62.888698,103.18847 21.141647,80.749527 67.561905,90.314164 32.397939,58.536529 75.180341,78.932329 48.643062,39.662806 85.301251,69.704441 68.932909,25.225233 97.336443,63.166791 92.088307,16.062867 l 18.498173,43.636456 6.17707,-46.991131 7.51776,46.795362 17.24329,-44.147384 -3.89956,47.234692 27.3074,-38.737952 -15.09025,44.928912 35.78449,-31.07721 -25.40394,40.012028 42.18192,-21.610375 -34.24126,32.769791 46.1279,-10.887623 -41.08859,23.623087 47.39307,0.46788 -45.548,13.10351 45.90395,11.79619 -47.36034,1.82239 41.74705,22.43894 -46.42026,-9.56463 35.16397,31.77763 -42.7824,-20.3958 z"
       inkscape:transform-center-x="2.442309"
       inkscape:transform-center-y="-3.7165349"
       transform="matrix(0.75976443,0,0,0.63692935,7.0534591,6.3198654)" />
    <path
       sodipodi:type="star"
       style="fill:#008080;fill-rule:evenodd;stroke:none;stroke-width:2;stroke-miterlimit:4;stroke-dasharray:none;stroke-opacity:1"
       id="path1198"
       sodipodi:sides="5"
       sodipodi:cx="265.66589"
       sodipodi:cy="73.33876"
       sodipodi:r1="76.818527"
       sodipodi:r2="42.250187"
       sodipodi:arg1="0.61232213"
       sodipodi:arg2="1.2406407"
       inkscape:flatsided="false"
       inkscape:rounded="0.85"
       inkscape:randomized="0"
       d="m 328.52769,117.49169 c -24.10645,34.32104 -9.48877,-17.781489 -49.1647,-4.18459 -39.67592,13.59689 3.82689,45.78159 -36.26366,33.46078 -40.09056,-12.32081 13.97901,-14.51913 -11.21295,-48.05151 -25.19194,-33.532378 -42.35831,17.78688 -43.02919,-24.148842 -0.67087,-41.935723 18.12827,8.808168 42.23472,-25.512877 C 255.19836,14.733609 201.08615,14.265948 240.76207,0.66905666 280.438,-12.927836 237.98695,20.631937 278.07751,32.952746 c 40.09055,12.320807 23.81373,-39.2874792 49.00567,-5.7551 25.19195,33.532381 -19.84338,3.529571 -19.1725,45.465294 0.67087,41.93572 44.72346,10.507706 20.61701,44.82875 z"
       inkscape:transform-center-x="4.0246996e-06"
       transform="matrix(0.87773079,0,0,0.8277287,26.082709,13.036718)" />
    <path
       sodipodi:type="star"
       style="fill:#008080;fill-rule:evenodd;stroke:none;stroke-width:2;stroke-miterlimit:4;stroke-dasharray:none;stroke-opacity:1"
       id="path1200"
       sodipodi:sides="24"
       sodipodi:cx="89.054207"
       sodipodi:cy="214.02943"
       sodipodi:r1="57.167797"
       sodipodi:r2="67.256233"
       sodipodi:arg1="0.60343348"
       sodipodi:arg2="0.73433317"
       inkscape:flatsided="false"
       inkscape:rounded="0"
       inkscape:randomized="0"
       d="m 136.12572,246.47061 2.85129,12.62671 -12.85161,-1.54911 -0.51389,12.93443 -12.01277,-4.82257 -3.84406,12.3607 -10.355265,-7.76738 -6.912261,10.94461 -7.992075,-10.18285 -9.509403,8.78265 -5.084236,-11.90438 -11.458495,6.02217 -1.829914,-12.81465 -12.62671,2.8513 1.549112,-12.85161 -12.934434,-0.5139 4.82257,-12.01276 -12.360699,-3.84406 7.767377,-10.35527 -10.944603,-6.91226 10.182851,-7.99207 -8.782649,-9.50941 11.904379,-5.08423 -6.022173,-11.4585 12.814644,-1.82991 -2.851295,-12.62671 12.851612,1.54911 0.513894,-12.93443 12.012764,4.82257 3.844061,-12.3607 10.355266,7.76737 6.912262,-10.9446 7.992074,10.18285 9.509406,-8.78265 5.08423,11.90438 11.4585,-6.02217 1.82991,12.81464 12.62671,-2.85129 -1.54911,12.85161 12.93443,0.51389 -4.82257,12.01277 12.3607,3.84406 -7.76737,10.35527 10.9446,6.91226 -10.18285,7.99207 8.78265,9.50941 -11.90438,5.08423 6.02217,11.4585 z"
       inkscape:transform-center-x="2.4841981"
       inkscape:transform-center-y="0.18782108"
       transform="matrix(0.8722206,0,0,0.83694224,12.51207,35.30993)" />
    <path
       sodipodi:type="star"
       style="fill:#008080;fill-rule:evenodd;stroke:none;stroke-width:2;stroke-miterlimit:4;stroke-dasharray:none;stroke-opacity:1"
       id="path1202"
       sodipodi:sides="8"
       sodipodi:cx="252.19553"
       sodipodi:cy="211.78436"
       sodipodi:r1="50.279915"
       sodipodi:r2="55.86657"
       sodipodi:arg1="0.68101701"
       sodipodi:arg2="1.0737161"
       inkscape:flatsided="false"
       inkscape:rounded="0"
       inkscape:randomized="0"
       d="m 291.25964,243.43977 -12.42352,17.45011 -21.40184,0.90074 -21.12385,3.55434 -15.77031,-14.49648 -17.45011,-12.42352 -0.90074,-21.40185 -3.55434,-21.12385 14.49648,-15.7703 12.42352,-17.45012 21.40185,-0.90073 21.12385,-3.55434 15.7703,14.49648 17.45012,12.42352 0.90073,21.40184 3.55434,21.12385 z"
       inkscape:transform-center-x="2.7247181e-06"
       inkscape:transform-center-y="-2.3098821e-06" />
    <path
       sodipodi:type="star"
       style="fill:#008080;fill-rule:evenodd;stroke:none;stroke-width:2;stroke-miterlimit:4;stroke-dasharray:none;stroke-opacity:1"
       id="path1204"
       sodipodi:sides="39"
       sodipodi:cx="411.57645"
       sodipodi:cy="68.109047"
       sodipodi:r1="39.449337"
       sodipodi:r2="59.560181"
       sodipodi:arg1="1.6194241"
       sodipodi:arg2="1.3792791"
       inkscape:flatsided="false"
       inkscape:rounded="-5.01"
       inkscape:randomized="0"
       d="m 409.65887,107.51175 c 112.06258,-31.279236 -102.11907,4.05886 13.25477,19.06851 138.54707,18.02439 -158.40398,-4.39767 -19.55058,-19.88636 115.62895,-12.898081 -101.44774,-12.374758 10.02433,20.94779 133.8616,40.01549 -155.64726,-29.750507 -16.10741,-22.76498 116.20058,5.81714 -98.14897,-28.487863 6.53425,22.28454 125.70919,60.97022 -148.85935,-54.332818 -12.24706,-25.05398 113.76267,24.38169 -92.30819,-43.86316 2.87494,23.04413 C 508.74309,205.49723 256.22604,47.643451 386.37258,98.457284 494.75096,140.77205 302.2959,40.354869 385.51376,121.66417 485.44619,219.30472 261.5207,22.988518 381.83077,94.021298 482.01791,153.17322 308.16314,23.184446 377.26042,116.7899 460.2361,229.19631 270.70173,-0.49781736 378.05935,88.914199 467.46046,163.37127 316.70873,7.1775474 369.89584,110.65481 433.76576,234.91583 283.53133,-22.207271 375.15601,83.268257 451.45564,171.10207 327.71134,-7.2512575 363.61077,103.41782 406.72072,236.31514 299.67724,-41.577579 373.19593,77.229699 434.41797,176.16541 340.88602,-19.72827 358.56799,95.266343 379.80145,233.35801 318.72128,-58.107061 372.22989,70.954922 416.78872,178.43015 355.89154,-29.930342 354.8981,86.411509 353.70513,226.12101 340.17021,-71.367612 372.28291,64.606438 399.02448,177.83763 372.33926,-37.593246 352.69615,77.082651 329.10765,214.79158 363.46854,-81.015791 373.35361,58.348669 381.58532,174.40319 389.80322,-42.518516 352.01917,67.521381 306.64606,199.66316 388.01283,-86.801715 375.41426,52.343689 364.92292,168.2158 407.83108,-44.57859 352.88468,57.975331 286.90212,181.12755 413.1674,-88.575532 378.41149,46.747024 349.46881,159.43569 425.95595,-43.720113 355.27029,48.69174 270.38718,159.66482 438.28078,-86.2913 382.26768,41.703624 335.62327,148.29027 443.7084,-39.96532 359.11419,39.911046 257.52896,135.83085 462.70252,-80.00818 386.88295,37.34411 c -63.13808,97.72408 73.7457,-70.755567 -22.56611,-5.483444 -115.65634,78.382244 121.48328,-101.749568 27.82093,1.920726 -77.99651,86.330518 84.1407,-58.009659 -21.39428,-9.032293 -126.73202,58.814634 136.23188,-80.944649 27.15254,6.358644 -90.83485,72.701047 92.35651,-43.761332 -19.66834,-12.34721 C 243.70228,56.484286 525.67984,-39.282774 404.00862,29.392408 302.68798,86.581058 502.18894,1.0127989 386.57561,14.050067 247.74095,29.705914 541.42909,-19.588606 410.31721,28.679813 301.13494,68.874913 511.77853,16.416944 395.57103,10.739701 256.02288,3.9221633 553.81523,2.3768847 416.65841,28.988415 302.44227,51.148931 518.77294,33.159888 404.98099,8.9151699 268.33355,-20.199181 562.51745,26.044804 422.86799,30.31022 306.57613,33.862208 522.99101,50.807997 414.56177,8.6237295 284.35415,-42.033388 567.31039,50.802165 428.78512,32.610996 313.42943,17.462459 524.3235,68.904194 424.06522,9.8729276 303.66973,-61.014965 568.06989,76.007766 434.25656,35.831152 322.82469,2.3744313 522.73591,86.979797 433.24523,12.630411 325.78004,-76.652297 564.7763,101.00879 439.1406,39.887289 c -104.62202,-50.898394 79.12874,64.679371 2.72342,-23.062528 -91.75158,-105.365148 115.65089,108.332979 1.44672,27.849593 -95.10252,-67.021825 67.72874,76.534926 6.38764,-22.327006 -73.66166,-118.718686 96.77541,125.481802 -3.0394,27.721018 -83.11991,-81.409426 54.57461,86.408274 9.88643,-21.013228 -53.66395,-128.997472 75.39349,139.380712 -7.44681,26.874484 -68.98454,-93.688566 40.00702,94.043698 13.12916,-19.155217 -32.27637,-135.935292 52.05893,149.669735 -11.66135,25.331913 -53.0625,-103.541221 24.40327,99.243432 16.03186,-16.801096 -10.05285,-139.352459 27.37607,156.082388 -15.57386,23.13326 -35.76618,-110.712213 8.16749,101.872818 18.51933,-14.011836 12.43105,-139.16047 1.98418,158.452594 -19.08302,20.335468 -17.54352,-115.015817 -8.27983,101.863746 20.52717,-10.859677 34.59298,-135.364299 -23.4591,156.718963 -22.09794,17.010998 1.1335,-116.340571 -24.5127,99.216465 22.00336,-7.426258 55.85897,-128.062263 -48.29479,150.926383 -24.54052,13.245952 19.78115,-114.652166 -40.11071,93.999521 22.90967,-3.800502 75.67824,-117.443482 -71.87968,141.224903 -26.34753,9.137842 37.91649,-109.99433 -54.66987,86.348041 23.22265,-0.07632 93.53748,-103.782976 -93.60293,127.865767 -27.47216,4.793068 55.06982,-102.4876988 -67.81311,76.460189 22.93416,3.649849 108.97416,-87.434548 -112.9019,111.19497 -27.88526,0.32415 70.79686,-92.3266867 -79.20002,64.59207 22.0517,7.28148 121.58846,-68.821603 -129.27679,91.64429 -27.57615,-4.15315 84.6903,-79.774467 -88.5357,51.05104 20.59809,10.72453 131.05369,-48.426225 -142.30346,69.72006 -26.55283,-8.5229 96.39031,-65.156127 -95.57835,36.18782 18.61102,13.88982 137.12469,-26.77663 -151.64455,45.99012 -24.84181,-12.6719 105.59386,-48.850284 -100.14557,20.38735 16.14193,16.69536 139.64423,-4.43353 -157.05813,21.06907 -22.4874,-16.49271 z"
       transform="matrix(0.75737467,-6.4021273e-4,6.3899122e-4,0.60450323,105.54677,29.980406)"
       inkscape:transform-center-x="-1.0080337e-05" />
    <path
       sodipodi:type="star"
       style="fill:#008080;fill-rule:evenodd;stroke:none;stroke-width:2;stroke-miterlimit:4;stroke-dasharray:none;stroke-opacity:1"
       id="path1208"
       sodipodi:sides="26"
       sodipodi:cx="413.01486"
       sodipodi:cy="202.07007"
       sodipodi:r1="101.3618"
       sodipodi:r2="107.29579"
       sodipodi:arg1="1.911826"
       sodipodi:arg2="2.0809667"
       inkscape:flatsided="false"
       inkscape:rounded="0.2"
       inkscape:randomized="0.01"
       d="m 378.34794,298.02564 c -3.44523,-1.41443 -13.69534,-1.23849 -17.00111,-2.9033 -1.70914,-0.86074 -1.87986,-7.59537 -3.41243,-8.74184 -2.96422,-2.21746 -15.66625,-2.66675 -18.47287,-5.09933 -1.45108,-1.25769 -0.21948,-9.8084 -1.43905,-11.30033 -2.35885,-2.88562 -13.48408,-5.85637 -15.64719,-8.86273 -1.11837,-1.55434 2.24622,-8.72195 1.41076,-10.44737 -1.61592,-3.33725 -10.48724,-10.2004 -11.83094,-13.67131 -0.69472,-1.79453 3.28339,-5.79013 2.88466,-7.66481 -0.77121,-3.62594 -7.40695,-13.05566 -7.95767,-16.7488 -0.28474,-1.90943 4.26469,-5.65043 4.3357,-7.56996 0.13736,-3.71268 -4.53897,-14.02688 -4.16489,-17.70948 0.19341,-1.90398 7.33003,-5.09854 7.86072,-6.94333 1.02644,-3.56812 -1.38778,-15.57797 -0.12666,-19.07075 0.65203,-1.80583 5.60715,-1.91559 6.56451,-3.57469 1.8517,-3.20895 2.51352,-16.39403 4.54797,-19.50454 1.05185,-1.6082 9.48767,-1.20267 10.82343,-2.59224 2.5836,-2.68764 4.04372,-12.4667 6.78953,-14.98651 1.41963,-1.30279 8.54115,0.33821 10.14978,-0.71607 3.11135,-2.03914 7.9872,-11.98252 11.24617,-13.76436 1.68495,-0.92124 8.85175,2.35002 10.67798,1.72938 3.53223,-1.20043 10.24045,-9.840346 13.82484,-10.795618 1.8532,-0.493894 6.82432,4.940128 8.74512,4.784848 3.71516,-0.30033 14.90406,-6.804581 18.63849,-6.827608 1.93077,-0.0119 5.01987,5.932898 6.92799,6.196938 3.69063,0.51069 15.15577,-3.704199 18.81015,-2.930091 1.88939,0.400229 3.05008,7.377671 4.8236,8.102421 3.43027,1.40179 15.38696,-0.34123 18.71109,1.29096 1.71864,0.84388 1.72675,9.0197 3.29678,10.13489 3.0367,2.15695 13.37427,3.64366 16.20907,6.06939 1.46565,1.25414 0.30564,8.8836 1.55694,10.33027 2.42023,2.79809 13.56016,6.65829 15.76067,9.66782 1.1377,1.55599 -2.22964,6.75209 -1.40855,8.48684 1.58813,3.35529 11.64278,11.20823 13.01077,14.65835 0.70728,1.78378 -4.97509,7.39473 -4.59465,9.27714 0.73583,3.64091 9.07333,12.82589 9.63015,16.51442 0.28789,1.90703 -5.5261,4.67231 -5.59368,6.59801 -0.1307,3.72463 5.85898,13.85242 5.46041,17.54109 -0.20606,1.90711 -6.10465,5.56896 -6.6098,7.42865 -0.97705,3.59694 0.98413,14.43263 -0.3092,17.93363 -0.66867,1.81008 -8.69279,3.71261 -9.64117,5.38192 -1.83432,3.22871 -0.19049,15.26107 -2.28636,18.34911 -1.08361,1.59657 -8.20145,0.60275 -9.53715,1.98944 -2.58347,2.68209 -6.64479,12.81868 -9.37357,15.33471 -1.41084,1.30085 -8.52027,-0.3693 -10.14761,0.66385 -3.14755,1.99828 -7.56218,11.48916 -10.81242,13.283 -1.68044,0.92745 -7.27394,-2.41772 -9.08144,-1.76327 -3.49599,1.2658 -11.1403,10.93562 -14.71056,11.95293 -1.8459,0.52596 -8.62812,-5.91651 -10.5355,-5.72632 -3.6892,0.36785 -12.67532,7.51961 -16.3791,7.6327 -1.91492,0.0585 -5.33906,-6.13335 -7.24599,-6.39581 -3.6883,-0.50763 -14.24399,3.84458 -17.87944,3.03117 -1.8796,-0.42055 -4.71703,-7.32212 -6.49828,-8.05341 z"
       inkscape:transform-center-x="1.5780474e-06"
       inkscape:transform-center-y="2.3483605e-06"
       transform="matrix(0.66751923,0,0,0.503862,133.22349,111.86002)" />
  </g>
</svg>
