<?xml version="1.0" encoding="UTF-8" standalone="no"?>
<svg
   xmlns:dc="http://purl.org/dc/elements/1.1/"
   xmlns:cc="http://creativecommons.org/ns#"
   xmlns:rdf="http://www.w3.org/1999/02/22-rdf-syntax-ns#"
   xmlns:svg="http://www.w3.org/2000/svg"
   xmlns="http://www.w3.org/2000/svg"
   xmlns:sodipodi="http://sodipodi.sourceforge.net/DTD/sodipodi-0.dtd"
   xmlns:inkscape="http://www.inkscape.org/namespaces/inkscape"
   width="1920"
   height="1080"
   viewBox="0 0 508 285.75"
   version="1.1"
   id="svg8"
   inkscape:version="1.0.1 (3bc2e813f5, 2020-09-07)"
   sodipodi:docname="Спирали.svg">
  <defs
     id="defs2">
    <inkscape:path-effect
       effect="fillet_chamfer"
       id="path-effect1112"
       is_visible="true"
       lpeversion="1"
       satellites_param="F,0,0,1,0,30.427083,0,1 @ F,0,0,1,0,0,0,1 @ F,0,0,1,0,0,0,1 @ F,0,0,1,0,30.427083,0,1"
       unit="px"
       method="auto"
       mode="F"
       radius="115"
       chamfer_steps="1"
       flexible="false"
       use_knot_distance="true"
       apply_no_radius="true"
       apply_with_radius="true"
       only_selected="false"
       hide_knots="false" />
    <inkscape:path-effect
       effect="fillet_chamfer"
       id="path-effect1093"
       is_visible="true"
       lpeversion="1"
       satellites_param="F,0,0,1,0,0,0,1 @ F,0,0,1,0,23.292539,0,1 @ F,0,0,1,0,0,0,1 @ F,0,0,1,0,0,0,1"
       unit="px"
       method="auto"
       mode="F"
       radius="0"
       chamfer_steps="1"
       flexible="false"
       use_knot_distance="true"
       apply_no_radius="true"
       apply_with_radius="true"
       only_selected="false"
       hide_knots="false" />
    <inkscape:path-effect
       effect="bend_path"
       id="path-effect1087"
       is_visible="true"
       lpeversion="1"
       bendpath="M 274.0849,59.681284 H 394.75708"
       prop_scale="1.19"
       scale_y_rel="false"
       vertical="false"
       hide_knot="false" />
  </defs>
  <sodipodi:namedview
     id="base"
     pagecolor="#ffffff"
     bordercolor="#666666"
     borderopacity="1.0"
     inkscape:pageopacity="0.0"
     inkscape:pageshadow="2"
     inkscape:zoom="0.35355339"
     inkscape:cx="1221.6408"
     inkscape:cy="584.45764"
     inkscape:document-units="mm"
     inkscape:current-layer="g91"
     inkscape:document-rotation="0"
     showgrid="false"
     units="px"
     showguides="false"
     inkscape:snap-global="true"
     inkscape:window-width="1350"
     inkscape:window-height="728"
     inkscape:window-x="0"
     inkscape:window-y="0"
     inkscape:window-maximized="0">
    <inkscape:grid
       type="xygrid"
       id="grid59" />
  </sodipodi:namedview>
  <metadata
     id="metadata5">
    <rdf:RDF>
      <cc:Work
         rdf:about="">
        <dc:format>image/svg+xml</dc:format>
        <dc:type
           rdf:resource="http://purl.org/dc/dcmitype/StillImage" />
        <dc:title></dc:title>
      </cc:Work>
    </rdf:RDF>
  </metadata>
  <g
     inkscape:groupmode="layer"
     id="g91"
     inkscape:label="Копия Layer 1">
    <path
       sodipodi:type="spiral"
       style="fill:none;fill-rule:evenodd;stroke:#000000;stroke-width:0.264583"
       id="path1144"
       sodipodi:cx="74.087112"
       sodipodi:cy="71.093697"
       sodipodi:expansion="1.85"
       sodipodi:revolution="4.3000002"
       sodipodi:radius="64.98201"
       sodipodi:argument="-26.346554"
       sodipodi:t0="0.20900001"
       d="m 73.096782,67.643258 c 2.22117,-1.506923 5.164062,-0.256803 6.4237,1.890976 1.991164,3.395086 0.09247,7.643387 -3.188541,9.380736 -4.784819,2.533638 -10.573315,-0.145036 -12.847103,-4.778254 -3.133638,-6.385305 0.4527,-13.941923 6.651002,-16.809764 8.192118,-3.790343 17.739328,0.828219 21.25789,8.799473 C 95.896684,76.327806 90.123974,88.08355 80.176144,92.308669 67.766465,97.579403 53.588121,90.532887 48.601351,78.408512 42.508348,63.594543 50.94635,46.782916 65.444027,40.980072 82.855547,34.010932 102.50814,43.956349 109.18087,61.021235 117.07944,81.221097 105.51225,103.91965 85.688808,111.5155 62.512067,120.39626 36.565012,107.09436 27.993306,84.323346 18.078089,57.983255 33.226355,28.58738 59.131838,18.987587 88.819842,7.9861043 121.8628,25.091192 132.54246,54.316091 c 6.94008,18.991522 3.85768,40.588128 -7.56725,57.188779" />
    <path
       sodipodi:type="spiral"
       style="fill:none;fill-rule:evenodd;stroke:#000000;stroke-width:0.264583"
       id="path1144-7"
       sodipodi:cx="225.50218"
       sodipodi:cy="80.968765"
       sodipodi:expansion="1"
       sodipodi:revolution="1"
       sodipodi:radius="64.98201"
       sodipodi:argument="-26.346554"
       sodipodi:t0="0"
       d="m 225.50218,80.968765 c 3.41562,-9.158065 14.03004,0.08592 15.22131,5.676987 3.22827,15.151438 -13.38212,25.410158 -26.57528,24.765628 -23.59948,-1.15292 -37.54358,-25.766507 -34.30995,-47.473575 4.74548,-31.855994 38.27956,-49.927734 68.37187,-43.854266" />
    <path
       sodipodi:type="spiral"
       style="fill:#008080;fill-rule:evenodd;stroke:none;stroke-width:0.264583"
       id="path1144-0"
       sodipodi:cx="92.295059"
       sodipodi:cy="193.97032"
       sodipodi:expansion="1.85"
       sodipodi:revolution="3.8681612"
       sodipodi:radius="61.075333"
       sodipodi:argument="-26.346554"
       sodipodi:t0="0.20681661"
       d="m 89.703731,191.91251 c 0.806803,-2.44704 3.812083,-3.14468 5.99455,-2.22773 3.598319,1.5118 4.546069,6.03871 2.958887,9.3378 -2.380828,4.94875 -8.739229,6.18096 -13.357366,3.7566 -6.494274,-3.40928 -8.043972,-11.89929 -4.620835,-18.03339 4.593336,-8.23104 15.507332,-10.1304 23.349783,-5.55125 10.15558,5.92975 12.43617,19.55372 6.54741,29.2931 -7.4157,12.2648 -24.03021,14.9577 -35.851813,7.6088 -14.555926,-9.04869 -17.691783,-28.92961 -8.734891,-43.01583 10.826492,-17.02648 34.245554,-20.63556 50.776214,-9.92518 19.6742,12.74711 23.78642,39.97235 11.17916,59.12495 -14.80875,22.49703 -46.104856,27.14202 -68.054806,12.49635 -25.493061,-17.00974 -30.700133,-52.63837 -13.876267,-77.55915 4.818122,-7.13696 11.195169,-13.18176 18.545794,-17.66176" />
    <path
       sodipodi:type="spiral"
       style="fill:none;fill-rule:evenodd;stroke:#000000;stroke-width:0.264583"
       id="path1171"
       sodipodi:cx="227.49982"
       sodipodi:cy="183.34691"
       sodipodi:expansion="0.15000001"
       sodipodi:revolution="10.57"
       sodipodi:radius="105.20706"
       sodipodi:argument="-23.609629"
       sodipodi:t0="0"
       d="m 227.49982,183.34691 c 3.79705,79.56951 -54.3147,41.87752 -59.92813,2.85977 -5.00396,-34.78148 22.56875,-66.0831 56.75502,-69.35419 37.53406,-3.59143 70.87405,25.93016 73.83722,63.12233 3.14365,39.45747 -27.93666,74.34214 -67.14333,77.15227 -40.96033,2.93583 -77.08635,-29.38053 -79.81229,-70.13955 -2.82252,-42.20298 30.51648,-79.37052 72.54994,-82.04737 43.26721,-2.75542 81.33475,31.45755 83.9824,74.57765 2.71401,44.20086 -32.26377,83.06273 -76.33428,85.69333 -45.03448,2.68813 -84.60862,-32.97089 -87.22997,-77.88805 -2.67223,-45.78882 33.60191,-86.00956 79.28389,-88.626924 46.47864,-2.66301 87.29217,34.172604 89.90916,80.553034 2.65844,47.1149 -34.69419,88.47625 -81.71811,91.09543 -47.70586,2.65716 -89.57688,-35.17501 -92.20008,-82.79606 -2.65828,-48.25804 35.62138,-90.605894 83.79992,-93.23445 48.77656,-2.661182 91.57271,36.03824 94.20759,84.73994 2.6654,49.26561 -36.42952,92.48496 -85.62436,95.1269 -49.72859,2.6706 -93.34892,-36.79842 -95.99844,-86.45987 -2.67655,-50.16837 37.14752,-94.169849 87.25199,-96.827317 50.58732,-2.683077 94.95214,37.479007 97.61783,88.005337 2.69003,50.98748 -37.79469,95.69954 -88.72384,98.37366 -51.37059,2.69729 -96.41526,-38.09614 -99.09792,-89.41081 -2.7048,-51.73817 38.38467,-97.102111 90.06911,-99.793389 52.09152,-2.712474 97.76249,38.661419 100.46242,90.701229 2.72027,52.43179 -38.9274,98.39852 -91.30934,101.10712 -52.75997,2.72815 -99.01207,-39.18347 -101.72932,-91.89532 -2.73607,-53.07699 39.43041,-99.604829 92.46087,-102.330688 53.38362,-2.744012 100.17824,39.668898 102.91266,93.007468 2.75196,53.68059 -39.89952,100.73365 -93.53645,103.47657 -53.96852,2.75988 -101.27222,-40.12285 -104.02358,-94.04901 -2.76778,-54.24801 40.33935,-101.79504 94.54622,-104.554754 54.51956,-2.775633 102.30307,40.549464 105.07106,95.029024 2.78344,54.78366 -40.75359,102.79721 -95.49833,105.57339 -55.04074,2.79119 -103.27823,-40.95209 -106.06251,-95.95491 -2.79888,-55.29119 41.14527,-103.746902 96.3995,-106.539193 55.53537,-2.806499 104.20387,41.333463 107.00408,96.832783 2.81405,55.7736 -41.51692,104.64974 -97.25534,107.45778 -56.00622,2.82154 -105.08512,-41.69589 -107.9009,-97.66774 -2.82894,-56.23348 41.87063,-105.510505 98.07051,-108.333928 56.45565,-2.836272 105.92639,42.041318 108.75737,98.464118 2.84353,56.67297 -42.20818,106.33322 -98.849,109.17167 -56.88568,2.85071 -106.73143,-42.37138 -109.57725,-99.22558 -2.85781,-57.09397 42.5311,-107.121392 99.59423,-109.974493 15.41095,-0.770532 30.94407,1.896947 45.21616,7.761537"
       transform="matrix(0.56954998,0,0,0.56790128,99.769058,91.154943)" />
    <path
       sodipodi:type="spiral"
       style="fill:none;fill-rule:evenodd;stroke:#000000;stroke-width:0.264583"
       id="path1144-73"
       sodipodi:cx="384.90173"
       sodipodi:cy="144.57892"
       sodipodi:expansion="1.97"
       sodipodi:revolution="4.5545759"
       sodipodi:radius="72.778534"
       sodipodi:argument="-26.346554"
       sodipodi:t0="0"
       d="m 384.90173,144.57892 c 0.0374,-0.1003 0.20418,0.0503 0.22414,0.0836 0.21953,0.36566 -0.23837,0.73001 -0.55164,0.79452 -0.92942,0.19141 -1.59247,-0.78824 -1.62436,-1.60609 -0.0666,-1.70868 1.6848,-2.79466 3.23492,-2.71219 2.707,0.14403 4.33639,2.92413 4.05634,5.43157 -0.43843,3.92557 -4.50336,6.21628 -8.19137,5.65539 -5.36429,-0.81582 -8.43287,-6.42032 -7.50814,-11.51073 1.27574,-7.02263 8.67324,-10.98479 15.38672,-9.61354 8.89992,1.81783 13.87076,11.26063 11.97066,19.81683 -2.4418,10.99554 -14.18117,17.08968 -24.79893,14.57871 -13.30886,-3.14738 -20.64048,-17.43374 -17.43692,-30.33112 3.93429,-15.83929 21.01729,-24.52225 36.4117,-20.54464 18.5863,4.80232 28.73412,24.9309 23.90125,43.03915 -5.75127,21.54936 -29.17372,33.27531 -50.21206,27.50618 -24.72803,-6.78092 -38.14508,-33.74496 -31.35891,-57.92915 7.8911,-28.121858 38.64391,-43.342761 66.18923,-35.458955 31.73042,9.081635 48.86771,43.869885 39.80585,74.991215 -10.35237,35.55333 -49.42227,54.71931 -84.33405,44.39915 -7.90611,-2.33711 -15.38879,-6.05674 -22.04377,-10.92085"
       transform="matrix(0.70864445,0,0,0.66938739,103.28239,52.816086)" />
  </g>
</svg>
